<svg width="21" height="22" viewBox="0 0 21 22" fill="none" xmlns="http://www.w3.org/2000/svg">
<path d="M14.9163 1.39194C17.5581 1.39194 19.7002 3.78076 19.7002 6.72683C19.7002 8.24045 19.1345 9.6043 18.2266 10.5757L10.5008 19.2349L2.6346 10.4193C1.80927 9.46038 1.30057 8.16096 1.30057 6.72683C1.30057 3.77992 3.44268 1.39194 6.08448 1.39194C8.07428 1.39194 9.77971 2.74742 10.5008 4.67521C11.2218 2.74742 12.9265 1.39194 14.9163 1.39194ZM14.9163 0.5C13.1568 0.5 11.5407 1.41118 10.5 2.91309C9.46008 1.41118 7.84394 0.5 6.08373 0.5C3.0045 0.5 0.5 3.29379 0.5 6.72683C0.5 8.34002 1.05297 9.87121 2.05687 11.0376L10.5 20.5L18.7931 11.2058C19.8885 10.0327 20.5 8.43792 20.5 6.72767C20.5 3.29379 17.9947 0.500837 14.9163 0.500837V0.5Z" fill="#FCFCFC" stroke="white"/>
</svg>
