<svg width="20" height="20" viewBox="0 0 20 20" fill="none" xmlns="http://www.w3.org/2000/svg">
<path d="M9.993 10.5719C10.5839 10.5719 11.1691 10.4555 11.715 10.2294C12.261 10.0033 12.757 9.67185 13.1749 9.25403C13.5927 8.83621 13.9242 8.34018 14.1503 7.79427C14.3765 7.24836 14.4929 6.66326 14.4929 6.07237C14.4929 5.48149 14.3765 4.89639 14.1503 4.35048C13.9242 3.80457 13.5927 3.30854 13.1749 2.89072C12.757 2.4729 12.261 2.14147 11.715 1.91535C11.1691 1.68922 10.5839 1.57284 9.993 1.57284C8.79956 1.57284 7.65499 2.0469 6.8111 2.89072C5.96721 3.73455 5.49312 4.87902 5.49312 6.07237C5.49312 7.26573 5.96721 8.4102 6.8111 9.25403C7.65499 10.0979 8.79956 10.5719 9.993 10.5719ZM10 3.18514e-07C11.3172 -0.000428708 12.5979 0.432564 13.6445 1.23217C14.6912 2.03178 15.4456 3.15356 15.7914 4.42443C16.1371 5.69531 16.0551 7.04465 15.5578 8.26426C15.0606 9.48386 14.1758 10.506 13.0399 11.1728C16.7278 12.2827 19.4978 15.3904 19.9947 19.25C20.0417 19.617 19.7687 19.9499 19.3848 19.9949C19.0018 20.0399 18.6518 19.78 18.6048 19.413C18.0648 15.2234 14.4359 12.0688 10.035 12.0688C5.61012 12.0688 1.93421 15.2294 1.39523 19.413C1.34823 19.78 0.998237 20.0399 0.615247 19.9949C0.231257 19.9499 -0.0417357 19.617 0.00526311 19.25C0.50125 15.4064 3.28618 12.3027 6.98008 11.1828C5.8408 10.519 4.95195 9.49833 4.45098 8.27867C3.95001 7.05902 3.86482 5.70832 4.20857 4.43539C4.55232 3.16247 5.30587 2.03823 6.35272 1.2365C7.39956 0.434773 8.68138 0.00020924 10 3.18514e-07Z" fill="#FEFCFC"/>
</svg>
